PathFileType	4	(X/Y/Z)	C:\Users\86182\Documents\cortex\Trimmed_M1_H14.trc
DataRate	CameraRate	NumFrames	NumMarkers	Units	OrigDataRate	OrigDataStartFrame	OrigNumFrames
100.00	100.00	       172	2	mm	100.00	1	       901
Frame#	Time	gripper			box			
		X1	Y1	Z1	X2	Y2	Z2	

1	0.000	228.85817	206.24632	182.42941	236.48759	204.50586	41.55633	
2	0.010	228.76431	206.19519	182.48468	236.49243	204.50868	41.55097	
3	0.020	228.78557	206.20009	182.47546	236.48759	204.50586	41.55633	
4	0.030	228.76826	206.19171	182.48450	236.47337	204.49750	41.57235	
5	0.040	228.81834	206.21509	182.46933	236.51134	204.51978	41.52974	
6	0.050	228.77907	206.19661	182.48325	236.49718	204.51146	41.54566	
7	0.060	228.79539	206.20399	182.48134	236.49243	204.50868	41.55097	
8	0.070	228.76826	206.19171	182.48450	236.50192	204.51425	41.54035	
9	0.080	228.76826	206.19171	182.48450	236.48285	204.50307	41.56167	
10	0.090	228.78989	206.20149	182.48201	236.52075	204.52530	41.51915	
11	0.100	228.84268	206.22772	182.44562	236.50192	204.51425	41.54035	
12	0.110	228.76826	206.19171	182.48450	236.50192	204.51425	41.54035	
13	0.120	228.76826	206.19171	182.48450	236.47337	204.49750	41.57235	
14	0.130	228.77362	206.19414	182.48389	236.52544	204.52805	41.51391	
15	0.140	228.80844	206.21115	182.46350	236.47337	204.49750	41.57235	
16	0.150	228.85544	206.23114	182.47440	236.47337	204.49750	41.57235	
17	0.160	228.78989	206.20149	182.48201	236.51601	204.52252	41.52446	
18	0.170	228.84186	206.22681	182.45264	236.47337	204.49750	41.57235	
19	0.180	228.80719	206.20987	182.47296	236.47337	204.49750	41.57235	
20	0.190	228.76826	206.19171	182.48450	236.53479	204.53354	41.50340	
21	0.200	228.86356	206.23662	182.45009	236.51134	204.51978	41.52974	
22	0.210	228.81981	206.21666	182.45757	236.51601	204.52252	41.52446	
23	0.220	228.86179	206.23456	182.46660	236.47337	204.49750	41.57235	
24	0.230	228.78589	206.21674	182.46527	236.49243	204.50868	41.55097	
25	0.240	228.83131	206.22223	182.45155	236.50192	204.51425	41.54035	
26	0.250	228.80403	206.20769	182.48305	236.50192	204.51425	41.54035	
27	0.260	228.84392	206.23335	182.44746	236.49243	204.50868	41.55097	
28	0.270	228.85736	206.23328	182.45776	236.47337	204.49750	41.57235	
29	0.280	228.81174	206.21138	182.47945	236.52075	204.52530	41.51915	
30	0.290	228.78557	206.20009	182.47546	236.53011	204.53079	41.50864	
31	0.300	228.90277	206.25508	182.43619	236.47337	204.49750	41.57235	
32	0.310	228.80844	206.21115	182.46350	236.52075	204.52530	41.51915	
33	0.320	228.77362	206.19414	182.48389	236.48759	204.50586	41.55633	
34	0.330	228.81416	206.21393	182.46053	236.47337	204.49750	41.57235	
35	0.340	228.81416	206.21393	182.46053	236.48759	204.50586	41.55633	
36	0.350	228.80147	206.20709	182.47595	236.51134	204.51978	41.52974	
37	0.360	228.79665	206.20528	182.47186	236.49718	204.51146	41.54566	
38	0.370	228.83006	206.22093	182.46098	236.51601	204.52252	41.52446	
39	0.380	228.81953	206.21635	182.45990	236.50659	204.51700	41.53505	
40	0.390	228.83131	206.22223	182.45155	236.49243	204.50868	41.55097	
41	0.400	228.79129	206.20285	182.47249	236.50659	204.51700	41.53505	
42	0.410	228.81174	206.21138	182.47945	236.47812	204.50029	41.56701	
43	0.420	228.83696	206.22496	182.44861	236.49718	204.51146	41.54566	
44	0.430	228.82951	206.22032	182.46570	236.49243	204.50868	41.55097	
45	0.440	228.80147	206.20709	182.47595	236.48759	204.50586	41.55633	
46	0.450	228.76826	206.19171	182.48450	236.49243	204.50868	41.55097	
47	0.460	228.76826	206.19171	182.48450	236.47337	204.49750	41.57235	
48	0.470	228.82561	206.21945	182.45454	236.49718	204.51146	41.54566	
49	0.480	228.80844	206.21115	182.46350	236.50192	204.51425	41.54035	
50	0.490	228.84186	206.22681	182.45264	236.53011	204.53079	41.50864	
51	0.500	228.88100	206.24522	182.43877	236.48285	204.50307	41.56167	
52	0.510	228.83131	206.22223	182.45155	236.50192	204.51425	41.54035	
53	0.520	228.76826	206.19171	182.48450	236.51134	204.51978	41.52974	
54	0.530	228.79031	206.20187	182.47960	236.50192	204.51425	41.54035	
55	0.540	228.81981	206.21666	182.45757	236.51601	204.52252	41.52446	
56	0.550	228.76337	206.20601	182.47487	236.48285	204.50307	41.56167	
57	0.560	228.78830	206.21165	182.47691	236.49718	204.51146	41.54566	
58	0.570	228.80844	206.21115	182.46350	236.50192	204.51425	41.54035	
59	0.580	228.81235	206.21202	182.47467	236.53011	204.53079	41.50864	
60	0.590	228.75589	206.21768	182.48419	236.48759	204.50586	41.55633	
61	0.600	228.79129	206.20285	182.47249	236.53011	204.53079	41.50864	
62	0.610	228.73103	206.19592	182.48767	236.50659	204.51700	41.53505	
63	0.620	228.79700	206.20563	182.46950	236.48759	204.50586	41.55633	
64	0.630	228.79129	206.20285	182.47249	236.53011	204.53079	41.50864	
65	0.640	228.81354	206.21327	182.46523	236.47337	204.49750	41.57235	
66	0.650	228.80844	206.21115	182.46350	236.53479	204.53354	41.50340	
67	0.660	228.79700	206.20563	182.46950	236.52544	204.52805	41.51391	
68	0.670	228.76826	206.19171	182.48450	236.50192	204.51425	41.54035	
69	0.680	228.77969	206.19725	182.47850	236.49243	204.50868	41.55097	
70	0.690	228.80272	206.20839	182.46649	236.50659	204.51700	41.53505	
71	0.700	228.77209	206.22064	182.47093	236.47812	204.50029	41.56701	
72	0.710	228.80037	206.21783	182.46617	236.49243	204.50868	41.55097	
73	0.720	228.77397	206.19449	182.48149	236.54883	204.54178	41.48764	
74	0.730	228.78452	206.19907	182.48262	236.53479	204.53354	41.50340	
75	0.740	228.74965	206.19382	182.48610	236.52075	204.52530	41.51915	
76	0.750	228.79539	206.20399	182.48134	236.49243	204.50868	41.55097	
77	0.760	228.76826	206.19171	182.48450	236.54883	204.54178	41.48764	
78	0.770	228.76826	206.19171	182.48450	236.51134	204.51978	41.52974	
79	0.780	228.78557	206.20009	182.47546	236.49718	204.51146	41.54566	
80	0.790	228.77969	206.19725	182.47850	236.50192	204.51425	41.54035	
81	0.800	228.76826	206.19171	182.48450	236.51601	204.52252	41.52446	
82	0.810	228.77397	206.19449	182.48149	236.51134	204.51978	41.52974	
83	0.820	228.76466	206.19553	182.48228	236.49243	204.50868	41.55097	
84	0.830	228.80809	206.21082	182.46587	236.49718	204.51146	41.54566	
85	0.840	228.73387	206.21957	182.46983	236.47337	204.49750	41.57235	
86	0.850	228.80272	206.20839	182.46649	236.48759	204.50586	41.55633	
87	0.860	228.76826	206.19171	182.48450	236.47337	204.49750	41.57235	
88	0.870	228.70300	206.19908	182.49005	236.47337	204.49750	41.57235	
89	0.880	228.84833	206.23045	182.44267	236.48759	204.50586	41.55633	
90	0.890	228.75659	206.20222	182.48500	236.47337	204.49750	41.57235	
91	0.900	228.77907	206.19661	182.48325	236.49718	204.51146	41.54566	
92	0.910	228.84731	206.22926	182.45198	236.47812	204.50029	41.56701	
93	0.920	228.80147	206.20709	182.47595	236.48759	204.50586	41.55633	
94	0.930	228.77397	206.19449	182.48149	236.53479	204.53354	41.50340	
95	0.940	228.84131	206.22620	182.45732	236.48759	204.50586	41.55633	
96	0.950	228.79094	206.20251	182.47485	236.54883	204.54178	41.48764	
97	0.960	228.76826	206.19171	182.48450	236.47337	204.49750	41.57235	
98	0.970	228.78989	206.20149	182.48201	236.47337	204.49750	41.57235	
99	0.980	228.80435	206.23070	182.45815	236.51134	204.51978	41.52974	
100	0.990	228.77377	206.19395	182.48723	236.48285	204.50307	41.56167	
101	1.000	228.79031	206.20187	182.47960	236.47337	204.49750	41.57235	
102	1.010	228.81630	206.22050	182.45534	236.47812	204.50029	41.56701	
103	1.020	228.83104	206.22192	182.45390	236.49243	204.50868	41.55097	
104	1.030	228.79700	206.20563	182.46950	236.51601	204.52252	41.52446	
105	1.040	228.84268	206.22772	182.44562	236.51601	204.52252	41.52446	
106	1.050	228.76826	206.19171	182.48450	236.47337	204.49750	41.57235	
107	1.060	228.76826	206.19171	182.48450	236.48285	204.50307	41.56167	
108	1.070	228.76826	206.19171	182.48450	236.51106	204.49089	41.54056	
109	1.080	228.76826	206.19171	182.48450	236.49223	204.50143	41.55377	
110	1.090	228.67484	206.20226	182.49245	236.55855	204.48256	41.50043	
111	1.100	228.73103	206.19592	182.48767	236.53951	204.48592	41.51655	
112	1.110	228.74092	206.17667	182.52223	236.56807	204.48090	41.49239	
113	1.120	228.69025	206.14333	182.66324	236.59703	204.47581	41.46791	
114	1.130	228.62556	206.11691	182.63376	236.57773	204.47920	41.48423	
115	1.140	228.94333	206.09065	182.58308	236.65572	204.46552	41.41834	
116	1.150	228.97971	206.10550	182.59970	236.68533	204.46031	41.39331	
117	1.160	228.93895	206.11308	182.62566	236.63449	204.51250	41.42049	
118	1.170	228.83957	206.18915	182.75656	236.64914	204.50636	41.40944	
119	1.180	228.71600	206.25507	182.96329	236.62851	204.55263	41.41138	
120	1.190	228.78326	206.28200	182.99980	236.61911	204.55428	41.41934	
121	1.200	228.75923	206.25883	183.16025	236.76385	204.52890	41.29706	
122	1.210	228.38489	206.06126	183.65909	236.53644	204.55696	41.32452	
123	1.220	228.56754	206.14104	183.86308	236.47823	204.58388	41.18301	
124	1.230	228.85355	206.04668	183.94070	236.47823	204.58388	41.18301	
125	1.240	228.57471	206.12732	184.25552	236.47823	204.58388	41.18301	
126	1.250	228.55363	206.10863	184.37958	236.47580	204.68597	41.10541	
127	1.260	228.78265	206.11478	184.86176	236.09343	204.67548	41.01740	
128	1.270	228.61360	206.12552	185.49455	236.01729	204.65187	40.99408	
129	1.280	228.68906	206.12651	185.77028	236.22112	204.73419	41.02068	
130	1.290	228.62288	206.20161	186.03331	235.43362	204.87296	41.44697	
131	1.300	228.54858	206.21098	186.51918	235.33331	204.88747	41.68962	
132	1.310	228.39516	206.11493	186.98366	235.29829	204.86072	41.76067	
133	1.320	228.40733	206.11182	187.61722	234.66914	204.86285	42.27023	
134	1.330	228.98294	206.20560	187.70930	234.77039	204.95770	42.52486	
135	1.340	228.51273	206.19550	188.46208	235.04471	204.98523	42.91691	
136	1.350	228.16924	206.18721	189.03406	234.91002	205.02432	43.08503	
137	1.360	228.48296	206.25618	189.14673	235.18607	204.99142	43.46112	
138	1.370	228.47826	206.33199	189.71159	234.68785	205.03238	43.94914	
139	1.380	228.61617	206.28116	190.40700	234.38382	205.21799	44.67713	
140	1.390	228.64760	206.18082	190.70522	234.33165	205.25200	45.08857	
141	1.400	228.15858	206.11261	191.20210	233.87532	205.23662	45.34890	
142	1.410	228.21333	206.03992	191.69008	234.20425	205.28474	45.43676	
143	1.420	227.74557	206.07207	192.36296	234.31816	205.18489	45.57595	
144	1.430	228.21428	206.05115	192.61076	234.62549	205.10684	45.65982	
145	1.440	228.01639	205.98439	193.05161	234.14883	205.26625	46.26591	
146	1.450	228.37973	206.05449	193.43877	234.42268	205.34641	46.52394	
147	1.460	228.24979	205.98033	193.93803	234.28261	205.24995	46.92990	
148	1.470	228.21713	206.10417	194.24564	233.82813	205.33521	47.37905	
149	1.480	228.02238	205.97501	194.62103	233.90854	205.32036	47.50561	
150	1.490	228.19884	205.97742	195.47470	234.09123	205.30569	47.64200	
151	1.500	228.24200	205.99240	195.60481	234.09123	205.30569	47.64200	
152	1.510	228.22293	205.96478	196.04608	234.04053	205.26756	47.74316	
153	1.520	228.24760	205.88672	196.43399	233.89334	205.31042	48.10140	
154	1.530	228.01123	206.02379	197.07394	233.82211	205.39285	48.68829	
155	1.540	228.53886	206.00055	197.37944	234.39809	205.30960	48.75860	
156	1.550	227.92995	205.94487	197.94176	234.15147	205.38138	49.53036	
157	1.560	228.46532	205.99123	198.37477	234.17738	205.35498	49.77592	
158	1.570	228.60254	205.98518	198.59946	234.18861	205.26030	50.45773	
159	1.580	227.87343	206.04916	199.40321	233.71187	205.33594	50.99198	
160	1.590	227.73848	206.03632	199.78743	234.02328	205.44548	51.03357	
161	1.600	228.31171	206.03871	200.18568	234.21690	205.37807	51.25394	
162	1.610	228.39499	206.05014	200.39026	233.99246	205.28302	52.41886	
163	1.620	228.58316	205.95776	200.76576	234.25819	205.29604	52.57033	
164	1.630	227.81516	206.05898	201.50856	234.47701	205.36197	52.66973	
165	1.640	227.82637	206.12550	201.95633	234.09521	205.48824	53.16108	
166	1.650	227.62822	206.04723	202.40225	233.94849	205.41046	53.28227	
167	1.660	228.49933	206.03996	202.50766	233.39499	205.20013	54.11546	
168	1.670	228.49968	206.02182	202.94801	234.02330	205.38200	54.25208	
169	1.680	227.65923	206.12523	203.69649	233.84013	205.38293	54.67307	
170	1.690	227.68552	205.99237	204.09451	234.26472	205.34879	54.82162	
171	1.700	227.91235	206.08791	204.37964	234.64488	205.39729	54.90650	
172	1.710	228.52681	205.97560	204.83235	233.73660	205.24294	55.95949	
